<svg width="19" height="23" viewBox="0 0 19 23" fill="none" xmlns="http://www.w3.org/2000/svg">
<path fill-rule="evenodd" clip-rule="evenodd" d="M12.4533 0.115234H2.03906C0.934493 0.115234 0.0390625 1.01066 0.0390625 2.11523V20.1152C0.0390625 21.2198 0.934493 22.1152 2.03906 22.1152H16.0391C17.1436 22.1152 18.0391 21.2198 18.0391 20.1152V5.70102L12.4533 0.115234ZM2.03906 2.11523H10.0391V6.11523C10.0391 7.2198 10.9345 8.11523 12.0391 8.11523H16.0391V20.1152H2.03906V2.11523ZM12.0391 6.11523V2.52945L15.6248 6.11523H12.0391ZM8.03906 9.11523V13.701L6.74617 12.4081L5.33196 13.8223L9.03906 17.5294L12.7462 13.8223L11.332 12.4081L10.0391 13.701V9.11523H8.03906Z" fill="white"/>
</svg>
