<svg width="22" height="21" viewBox="0 0 22 21" fill="none" xmlns="http://www.w3.org/2000/svg">
<path fill-rule="evenodd" clip-rule="evenodd" d="M5.03326 9.17882C6.67728 12.4098 9.32597 15.047 12.5569 16.7025L15.0686 14.1908C15.3769 13.8825 15.8335 13.7798 16.2331 13.9168C17.5118 14.3392 18.8932 14.5675 20.3089 14.5675C20.9368 14.5675 21.4506 15.0813 21.4506 15.7092V19.6937C21.4506 20.3216 20.9368 20.8353 20.3089 20.8353C9.58855 20.8353 0.900391 12.1472 0.900391 1.42683C0.900391 0.798911 1.41415 0.285156 2.04207 0.285156H6.03794C6.66586 0.285156 7.17962 0.798911 7.17962 1.42683C7.17962 2.85393 7.40795 4.22394 7.83037 5.50262C7.95596 5.90221 7.86462 6.34746 7.54495 6.66713L5.03326 9.17882Z" fill="#B61A1F"/>
<path fill-rule="evenodd" clip-rule="evenodd" d="M13.6112 1.26465C17.842 1.77746 21.1966 5.13208 21.7094 9.3628L19.7763 9.68499C19.403 6.27721 16.6968 3.57103 13.2891 3.19777L13.6112 1.26465V1.26465Z" fill="#B61A1F"/>
<path fill-rule="evenodd" clip-rule="evenodd" d="M12.9668 5.13184C15.5517 5.36304 17.6105 7.42178 17.8417 10.0067L15.9023 10.3299C15.82 8.56763 14.4059 7.15346 12.6436 7.07116L12.9668 5.13184V5.13184Z" fill="#B61A1F"/>
</svg>
